<svg width="200" height="100" viewBox="0 0 200 100" fill="none" xmlns="http://www.w3.org/2000/svg">
<g filter="url(#filter0_d_64_50)">
<path d="M46.5897 35.6785C46.8563 36.0785 47.0497 36.5118 47.1697 36.9785C47.303 37.4318 47.3697 37.9318 47.3697 38.4785C47.3697 39.5851 47.0163 40.4918 46.3097 41.1985C45.603 41.8918 44.6963 42.2385 43.5897 42.2385C42.2563 42.2385 41.2097 41.7518 40.4497 40.7785C39.703 39.7918 39.3297 38.5118 39.3297 36.9385C39.543 36.8318 39.7763 36.7385 40.0297 36.6585C40.283 36.5785 40.5297 36.5318 40.7697 36.5185C40.7563 37.9451 40.9897 39.0651 41.4697 39.8785C41.963 40.6918 42.6497 41.0985 43.5297 41.0985C44.1963 41.0985 44.7297 40.8785 45.1297 40.4385C45.543 39.9851 45.7497 39.3918 45.7497 38.6585C45.7497 37.9518 45.5897 37.3251 45.2697 36.7785C44.9497 36.2185 44.2563 35.5451 43.1897 34.7585C42.5497 34.2785 42.083 33.8985 41.7897 33.6185C41.4963 33.3251 41.2497 33.0251 41.0497 32.7185C40.783 32.3185 40.583 31.8851 40.4497 31.4185C40.3163 30.9518 40.2497 30.4451 40.2497 29.8985C40.2497 28.7385 40.5763 27.8185 41.2297 27.1385C41.8963 26.4451 42.783 26.0985 43.8897 26.0985C44.903 26.0985 45.6897 26.3918 46.2497 26.9785C46.823 27.5518 47.243 28.5318 47.5097 29.9185C47.323 30.0251 47.1163 30.1051 46.8897 30.1585C46.6763 30.2118 46.403 30.2451 46.0697 30.2585C45.9497 29.2051 45.7163 28.4451 45.3697 27.9785C45.023 27.5118 44.5097 27.2785 43.8297 27.2785C43.203 27.2785 42.723 27.4851 42.3897 27.8985C42.0563 28.3118 41.8897 28.9118 41.8897 29.6985C41.8897 30.4185 42.0497 31.0651 42.3697 31.6385C42.703 32.1985 43.403 32.8785 44.4697 33.6785C45.1097 34.1585 45.5697 34.5385 45.8497 34.8185C46.143 35.0985 46.3897 35.3851 46.5897 35.6785ZM59.14 41.9385C58.98 41.9785 58.78 42.0185 58.54 42.0585C58.3133 42.0985 58.1133 42.1251 57.94 42.1385C57.7267 40.6585 57.4933 39.3318 57.24 38.1585C56.9867 36.9851 56.6867 35.8385 56.34 34.7185C56.0333 35.8918 55.7067 36.9518 55.36 37.8985C55.0267 38.8451 54.6067 39.8985 54.1 41.0585C53.94 41.1118 53.7333 41.1585 53.48 41.1985C53.24 41.2385 53.0133 41.2651 52.8 41.2785C52.1333 39.5051 51.6067 37.7985 51.22 36.1585C50.8333 34.5051 50.54 32.7185 50.34 30.7985C50.5667 30.7051 50.8067 30.6385 51.06 30.5985C51.3133 30.5451 51.58 30.5118 51.86 30.4985C52.02 32.3251 52.2333 33.9451 52.5 35.3585C52.78 36.7718 53.1467 38.1851 53.6 39.5985C54.0933 38.4251 54.5067 37.2585 54.84 36.0985C55.1733 34.9251 55.4533 33.6318 55.68 32.2185C55.96 32.1518 56.2 32.1051 56.4 32.0785C56.6133 32.0385 56.8133 32.0251 57 32.0385C57.4 33.1185 57.76 34.3451 58.08 35.7185C58.4 37.0918 58.6667 38.5318 58.88 40.0385C59.5333 38.4651 60.0667 36.9651 60.48 35.5385C60.9067 34.0985 61.2 32.7585 61.36 31.5185C61.5733 31.5451 61.7867 31.5985 62 31.6785C62.2267 31.7451 62.48 31.8585 62.76 32.0185C62.2533 34.1118 61.74 35.8585 61.22 37.2585C60.7133 38.6451 60.02 40.2051 59.14 41.9385ZM67.2678 35.1785C67.6545 35.3118 68.0678 35.4185 68.5078 35.4985C68.9611 35.5651 69.4345 35.5985 69.9278 35.5985C70.0611 35.5985 70.2145 35.5918 70.3878 35.5785C70.5745 35.5651 70.7078 35.5451 70.7878 35.5185C70.8945 35.1318 70.9678 34.7785 71.0078 34.4585C71.0611 34.1251 71.0878 33.8251 71.0878 33.5585C71.0878 32.9718 70.9878 32.5518 70.7878 32.2985C70.6011 32.0451 70.2945 31.9185 69.8678 31.9185C69.3078 31.9185 68.7945 32.2185 68.3278 32.8185C67.8611 33.4185 67.5078 34.2051 67.2678 35.1785ZM71.7278 38.0385C71.9411 38.0785 72.1545 38.1585 72.3678 38.2785C72.5945 38.3985 72.7878 38.5385 72.9478 38.6985C72.6945 39.4585 72.1745 40.1451 71.3878 40.7585C70.6145 41.3585 69.8078 41.6585 68.9678 41.6585C67.8878 41.6585 67.0345 41.2385 66.4078 40.3985C65.7945 39.5585 65.4878 38.4318 65.4878 37.0185C65.4878 35.4318 65.9278 34.0051 66.8078 32.7385C67.7011 31.4718 68.7611 30.8385 69.9878 30.8385C70.7745 30.8385 71.3945 31.0918 71.8478 31.5985C72.3145 32.0918 72.5478 32.7651 72.5478 33.6185C72.5478 34.0718 72.5011 34.5318 72.4078 34.9985C72.3278 35.4518 72.2145 35.8851 72.0678 36.2985C71.8011 36.3918 71.4745 36.4651 71.0878 36.5185C70.7145 36.5585 70.2478 36.5785 69.6878 36.5785C69.2611 36.5785 68.8211 36.5451 68.3678 36.4785C67.9278 36.3985 67.5011 36.2851 67.0878 36.1385C67.0611 36.2985 67.0411 36.4585 67.0278 36.6185C67.0278 36.7651 67.0278 36.9118 67.0278 37.0585C67.0278 38.1118 67.2078 38.9651 67.5678 39.6185C67.9411 40.2585 68.4345 40.5785 69.0478 40.5785C69.5811 40.5785 70.1145 40.3318 70.6478 39.8385C71.1811 39.3318 71.5411 38.7318 71.7278 38.0385ZM77.7592 35.1785C78.1459 35.3118 78.5592 35.4185 78.9992 35.4985C79.4525 35.5651 79.9259 35.5985 80.4192 35.5985C80.5525 35.5985 80.7059 35.5918 80.8792 35.5785C81.0659 35.5651 81.1992 35.5451 81.2792 35.5185C81.3859 35.1318 81.4592 34.7785 81.4992 34.4585C81.5525 34.1251 81.5792 33.8251 81.5792 33.5585C81.5792 32.9718 81.4792 32.5518 81.2792 32.2985C81.0925 32.0451 80.7859 31.9185 80.3592 31.9185C79.7992 31.9185 79.2859 32.2185 78.8192 32.8185C78.3525 33.4185 77.9992 34.2051 77.7592 35.1785ZM82.2192 38.0385C82.4325 38.0785 82.6459 38.1585 82.8592 38.2785C83.0859 38.3985 83.2792 38.5385 83.4392 38.6985C83.1859 39.4585 82.6659 40.1451 81.8792 40.7585C81.1059 41.3585 80.2992 41.6585 79.4592 41.6585C78.3792 41.6585 77.5259 41.2385 76.8992 40.3985C76.2859 39.5585 75.9792 38.4318 75.9792 37.0185C75.9792 35.4318 76.4192 34.0051 77.2992 32.7385C78.1925 31.4718 79.2525 30.8385 80.4792 30.8385C81.2659 30.8385 81.8859 31.0918 82.3392 31.5985C82.8059 32.0918 83.0392 32.7651 83.0392 33.6185C83.0392 34.0718 82.9925 34.5318 82.8992 34.9985C82.8192 35.4518 82.7059 35.8851 82.5592 36.2985C82.2925 36.3918 81.9659 36.4651 81.5792 36.5185C81.2059 36.5585 80.7392 36.5785 80.1792 36.5785C79.7525 36.5785 79.3125 36.5451 78.8592 36.4785C78.4192 36.3985 77.9925 36.2851 77.5792 36.1385C77.5525 36.2985 77.5325 36.4585 77.5192 36.6185C77.5192 36.7651 77.5192 36.9118 77.5192 37.0585C77.5192 38.1118 77.6992 38.9651 78.0592 39.6185C78.4325 40.2585 78.9259 40.5785 79.5392 40.5785C80.0725 40.5785 80.6059 40.3318 81.1392 39.8385C81.6725 39.3318 82.0325 38.7318 82.2192 38.0385ZM91.1153 37.2985C91.3286 37.3251 91.5353 37.3718 91.7353 37.4385C91.9486 37.4918 92.1286 37.5651 92.2753 37.6585C92.2486 38.7785 92.022 39.6585 91.5953 40.2985C91.182 40.9251 90.6153 41.2385 89.8953 41.2385C89.0553 41.2385 88.422 40.7651 87.9953 39.8185C87.5686 38.8585 87.3553 37.4451 87.3553 35.5785C87.3553 34.9651 87.3753 34.3518 87.4153 33.7385C87.4553 33.1251 87.5153 32.4985 87.5953 31.8585C87.342 31.8451 87.0886 31.8185 86.8353 31.7785C86.5953 31.7385 86.3486 31.6918 86.0953 31.6385C86.1086 31.4518 86.1353 31.2718 86.1753 31.0985C86.2153 30.9251 86.2686 30.7651 86.3353 30.6185C86.5886 30.6718 86.8286 30.7185 87.0553 30.7585C87.282 30.7985 87.5086 30.8251 87.7353 30.8385C87.7886 30.4918 87.8553 30.1185 87.9353 29.7185C88.0286 29.3051 88.1486 28.7985 88.2953 28.1985C88.5753 28.2118 88.8486 28.2451 89.1153 28.2985C89.3953 28.3385 89.662 28.3985 89.9153 28.4785C89.782 28.9185 89.662 29.3451 89.5553 29.7585C89.4486 30.1718 89.362 30.5718 89.2953 30.9585C89.8286 30.9718 90.3486 30.9718 90.8553 30.9585C91.362 30.9318 91.8553 30.8985 92.3353 30.8585C92.3353 30.9918 92.3153 31.1451 92.2753 31.3185C92.2486 31.4785 92.2086 31.6518 92.1553 31.8385C91.662 31.8918 91.1553 31.9318 90.6353 31.9585C90.1286 31.9718 89.622 31.9718 89.1153 31.9585C89.022 32.5851 88.9486 33.2251 88.8953 33.8785C88.842 34.5318 88.8153 35.1718 88.8153 35.7985C88.8153 37.2118 88.9153 38.2918 89.1153 39.0385C89.3286 39.7718 89.6286 40.1385 90.0153 40.1385C90.3753 40.1385 90.642 39.9118 90.8153 39.4585C91.002 38.9918 91.102 38.2718 91.1153 37.2985ZM99.2005 35.6785C100.16 36.3718 100.787 36.9651 101.08 37.4585C101.387 37.9385 101.54 38.4718 101.54 39.0585C101.54 39.9785 101.247 40.7385 100.66 41.3385C100.074 41.9385 99.3271 42.2385 98.4205 42.2385C97.4738 42.2385 96.7005 41.8985 96.1005 41.2185C95.5138 40.5385 95.2205 39.6385 95.2205 38.5185C95.4205 38.4518 95.6271 38.4051 95.8405 38.3785C96.0671 38.3385 96.2871 38.3251 96.5005 38.3385C96.4738 39.2318 96.6271 39.9318 96.9605 40.4385C97.3071 40.9451 97.8005 41.1985 98.4405 41.1985C98.9205 41.1985 99.3005 41.0385 99.5805 40.7185C99.8738 40.3851 100.02 39.9385 100.02 39.3785C100.02 38.9251 99.8938 38.5051 99.6405 38.1185C99.3871 37.7185 98.8405 37.2118 98.0005 36.5985C97.0138 35.8785 96.3671 35.2651 96.0605 34.7585C95.7538 34.2385 95.6005 33.6651 95.6005 33.0385C95.6005 32.1985 95.8538 31.5318 96.3605 31.0385C96.8671 30.5318 97.5538 30.2785 98.4205 30.2785C99.2471 30.2785 99.8938 30.5185 100.36 30.9985C100.84 31.4785 101.174 32.2451 101.36 33.2985C101.16 33.3918 100.954 33.4651 100.74 33.5185C100.54 33.5585 100.327 33.5918 100.1 33.6185C99.9938 32.8318 99.8005 32.2585 99.5205 31.8985C99.2538 31.5385 98.8805 31.3585 98.4005 31.3585C98.0005 31.3585 97.6805 31.4918 97.4405 31.7585C97.2138 32.0251 97.1005 32.3851 97.1005 32.8385C97.1005 33.3051 97.2338 33.7385 97.5005 34.1385C97.7671 34.5385 98.3338 35.0518 99.2005 35.6785ZM117.432 35.6785C117.699 36.0785 117.892 36.5118 118.012 36.9785C118.145 37.4318 118.212 37.9318 118.212 38.4785C118.212 39.5851 117.859 40.4918 117.152 41.1985C116.445 41.8918 115.539 42.2385 114.432 42.2385C113.099 42.2385 112.052 41.7518 111.292 40.7785C110.545 39.7918 110.172 38.5118 110.172 36.9385C110.385 36.8318 110.619 36.7385 110.872 36.6585C111.125 36.5785 111.372 36.5318 111.612 36.5185C111.599 37.9451 111.832 39.0651 112.312 39.8785C112.805 40.6918 113.492 41.0985 114.372 41.0985C115.039 41.0985 115.572 40.8785 115.972 40.4385C116.385 39.9851 116.592 39.3918 116.592 38.6585C116.592 37.9518 116.432 37.3251 116.112 36.7785C115.792 36.2185 115.099 35.5451 114.032 34.7585C113.392 34.2785 112.925 33.8985 112.632 33.6185C112.339 33.3251 112.092 33.0251 111.892 32.7185C111.625 32.3185 111.425 31.8851 111.292 31.4185C111.159 30.9518 111.092 30.4451 111.092 29.8985C111.092 28.7385 111.419 27.8185 112.072 27.1385C112.739 26.4451 113.625 26.0985 114.732 26.0985C115.745 26.0985 116.532 26.3918 117.092 26.9785C117.665 27.5518 118.085 28.5318 118.352 29.9185C118.165 30.0251 117.959 30.1051 117.732 30.1585C117.519 30.2118 117.245 30.2451 116.912 30.2585C116.792 29.2051 116.559 28.4451 116.212 27.9785C115.865 27.5118 115.352 27.2785 114.672 27.2785C114.045 27.2785 113.565 27.4851 113.232 27.8985C112.899 28.3118 112.732 28.9118 112.732 29.6985C112.732 30.4185 112.892 31.0651 113.212 31.6385C113.545 32.1985 114.245 32.8785 115.312 33.6785C115.952 34.1585 116.412 34.5385 116.692 34.8185C116.985 35.0985 117.232 35.3851 117.432 35.6785ZM129.164 34.9185C129.164 35.9985 128.997 37.2651 128.664 38.7185C128.344 40.1585 128.011 41.2785 127.664 42.0785C127.437 42.0518 127.211 42.0051 126.984 41.9385C126.771 41.8718 126.564 41.7851 126.364 41.6785C126.764 40.5985 127.071 39.4651 127.284 38.2785C127.511 37.0918 127.624 35.9785 127.624 34.9385C127.624 33.8985 127.517 33.1718 127.304 32.7585C127.104 32.3318 126.744 32.1185 126.224 32.1185C125.677 32.1185 125.137 32.4251 124.604 33.0385C124.071 33.6385 123.657 34.4518 123.364 35.4785V35.5385C123.364 36.2851 123.397 37.2118 123.464 38.3185C123.531 39.4251 123.597 40.2318 123.664 40.7385C123.517 40.7785 123.311 40.8185 123.044 40.8585C122.777 40.8851 122.524 40.8985 122.284 40.8985C122.177 39.4985 122.097 38.1851 122.044 36.9585C121.991 35.7185 121.964 34.5785 121.964 33.5385C121.964 32.4585 122.004 31.2118 122.084 29.7985C122.164 28.3718 122.257 27.3118 122.364 26.6185C122.537 26.5251 122.717 26.4585 122.904 26.4185C123.091 26.3651 123.277 26.3385 123.464 26.3385C123.597 26.3385 123.751 26.3651 123.924 26.4185C124.097 26.4585 124.211 26.4851 124.264 26.4985C124.051 27.5118 123.871 28.6118 123.724 29.7985C123.577 30.9718 123.477 32.1451 123.424 33.3185C123.837 32.5451 124.311 31.9518 124.844 31.5385C125.377 31.1251 125.931 30.9185 126.504 30.9185C127.437 30.9185 128.111 31.2385 128.524 31.8785C128.951 32.5051 129.164 33.5185 129.164 34.9185ZM132.58 36.5985C132.58 34.8651 132.973 33.4518 133.76 32.3585C134.56 31.2651 135.587 30.7185 136.84 30.7185C137.867 30.7185 138.68 31.1118 139.28 31.8985C139.88 32.6718 140.18 33.7185 140.18 35.0385C140.18 36.9718 139.8 38.5585 139.04 39.7985C138.293 41.0251 137.3 41.6385 136.06 41.6385C134.993 41.6385 134.147 41.1785 133.52 40.2585C132.893 39.3251 132.58 38.1051 132.58 36.5985ZM138.58 35.8785C138.58 34.5185 138.407 33.5051 138.06 32.8385C137.713 32.1718 137.187 31.8385 136.48 31.8385C135.84 31.8385 135.28 32.2785 134.8 33.1585C134.333 34.0385 134.1 35.1185 134.1 36.3985C134.1 37.5718 134.3 38.5585 134.7 39.3585C135.1 40.1451 135.64 40.5385 136.32 40.5385C136.92 40.5385 137.447 40.0851 137.9 39.1785C138.353 38.2585 138.58 37.1585 138.58 35.8785ZM145.445 39.7185C145.605 39.8785 145.778 39.9985 145.965 40.0785C146.152 40.1585 146.352 40.1985 146.565 40.1985C147.338 40.1985 148.012 39.6451 148.585 38.5385C149.158 37.4185 149.445 36.0385 149.445 34.3985C149.445 33.5585 149.305 32.8985 149.025 32.4185C148.745 31.9385 148.365 31.6985 147.885 31.6985C147.325 31.6985 146.832 31.9585 146.405 32.4785C145.978 32.9985 145.638 33.7651 145.385 34.7785C145.372 34.9385 145.365 35.1185 145.365 35.3185C145.365 35.5185 145.365 35.8185 145.365 36.2185C145.365 36.7118 145.372 37.2251 145.385 37.7585C145.398 38.2918 145.418 38.9451 145.445 39.7185ZM145.525 41.0985C145.578 41.8718 145.645 42.6251 145.725 43.3585C145.818 44.0918 145.932 44.8518 146.065 45.6385C145.878 45.7051 145.658 45.7518 145.405 45.7785C145.165 45.8185 144.938 45.8385 144.725 45.8385C144.498 44.1318 144.312 42.2385 144.165 40.1585C144.018 38.0785 143.945 36.1851 143.945 34.4785C143.945 33.6918 143.958 32.9851 143.985 32.3585C144.012 31.7318 144.058 31.1118 144.125 30.4985C144.298 30.4051 144.485 30.3385 144.685 30.2985C144.898 30.2451 145.118 30.2185 145.345 30.2185C145.412 30.2185 145.492 30.2251 145.585 30.2385C145.678 30.2518 145.792 30.2718 145.925 30.2985C145.832 30.6851 145.752 31.0585 145.685 31.4185C145.632 31.7785 145.585 32.1318 145.545 32.4785C145.905 31.7851 146.332 31.2518 146.825 30.8785C147.332 30.5051 147.885 30.3185 148.485 30.3185C149.258 30.3185 149.878 30.6785 150.345 31.3985C150.812 32.1185 151.045 33.0785 151.045 34.2785C151.045 36.2651 150.612 37.9251 149.745 39.2585C148.878 40.5785 147.818 41.2385 146.565 41.2385C146.392 41.2385 146.218 41.2318 146.045 41.2185C145.872 41.1918 145.698 41.1518 145.525 41.0985Z" fill="#3D3E3C"/>
</g>
<g filter="url(#filter1_d_64_50)">
<path d="M61.5686 73.3078C62.6619 73.2012 63.8086 73.2678 65.0086 73.5078C66.2352 73.7212 67.1152 74.0278 67.6486 74.4278C67.4352 77.4945 66.3152 79.8812 64.2886 81.5878C62.2886 83.2678 59.5419 84.1078 56.0486 84.1078C52.7419 84.1078 50.1552 83.0812 48.2886 81.0278C46.4219 78.9745 45.4886 76.0545 45.4886 72.2678C45.4886 67.4145 46.8219 63.3212 49.4886 59.9878C52.1552 56.6545 55.5152 54.9878 59.5686 54.9878C62.0486 54.9878 64.0486 55.7612 65.5686 57.3078C67.0886 58.8278 67.9686 60.9612 68.2086 63.7078C66.7952 64.3212 65.5819 64.7212 64.5686 64.9078C63.5552 65.0945 62.2752 65.1878 60.7286 65.1878C60.7286 63.4545 60.5019 62.1212 60.0486 61.1878C59.6219 60.2545 59.0086 59.7878 58.2086 59.7878C57.0886 59.7878 56.1552 60.8145 55.4086 62.8678C54.6619 64.9212 54.2886 67.4012 54.2886 70.3078C54.2886 73.1345 54.6219 75.3078 55.2886 76.8278C55.9819 78.3212 56.9552 79.0678 58.2086 79.0678C59.4886 79.0678 60.4219 78.5612 61.0086 77.5478C61.5952 76.5345 61.7819 75.1212 61.5686 73.3078ZM88.3351 53.3878C91.5351 53.3878 94.0018 54.4412 95.7351 56.5478C97.4951 58.6278 98.3751 61.5878 98.3751 65.4278C98.3751 67.5078 98.0951 69.6278 97.5351 71.7878C96.9751 73.9212 96.2018 75.8145 95.2151 77.4678C93.9885 79.4412 92.4951 80.9478 90.7351 81.9878C88.9751 83.0012 86.9885 83.5078 84.7751 83.5078C81.5751 83.5078 79.0818 82.2812 77.2951 79.8278C75.5085 77.3478 74.6151 74.0012 74.6151 69.7878C74.6151 64.9612 75.8818 61.0278 78.4151 57.9878C80.9485 54.9212 84.2551 53.3878 88.3351 53.3878ZM86.4551 78.3078C87.6551 78.3078 88.5485 77.4812 89.1351 75.8278C89.7218 74.1745 90.0151 71.4412 90.0151 67.6278C90.0151 64.3478 89.7485 62.0278 89.2151 60.6678C88.7085 59.2812 87.8418 58.5878 86.6151 58.5878C85.3885 58.5878 84.4418 59.4678 83.7751 61.2278C83.1351 62.9878 82.8151 65.4678 82.8151 68.6678C82.8151 71.7078 83.1218 74.0812 83.7351 75.7878C84.3751 77.4678 85.2818 78.3078 86.4551 78.3078ZM121.872 73.3078C122.965 73.2012 124.112 73.2678 125.312 73.5078C126.538 73.7212 127.418 74.0278 127.952 74.4278C127.738 77.4945 126.618 79.8812 124.592 81.5878C122.592 83.2678 119.845 84.1078 116.352 84.1078C113.045 84.1078 110.458 83.0812 108.592 81.0278C106.725 78.9745 105.792 76.0545 105.792 72.2678C105.792 67.4145 107.125 63.3212 109.792 59.9878C112.458 56.6545 115.818 54.9878 119.872 54.9878C122.352 54.9878 124.352 55.7612 125.872 57.3078C127.392 58.8278 128.272 60.9612 128.512 63.7078C127.098 64.3212 125.885 64.7212 124.872 64.9078C123.858 65.0945 122.578 65.1878 121.032 65.1878C121.032 63.4545 120.805 62.1212 120.352 61.1878C119.925 60.2545 119.312 59.7878 118.512 59.7878C117.392 59.7878 116.458 60.8145 115.712 62.8678C114.965 64.9212 114.592 67.4012 114.592 70.3078C114.592 73.1345 114.925 75.3078 115.592 76.8278C116.285 78.3212 117.258 79.0678 118.512 79.0678C119.792 79.0678 120.725 78.5612 121.312 77.5478C121.898 76.5345 122.085 75.1212 121.872 73.3078ZM148.638 53.3878C151.838 53.3878 154.305 54.4412 156.038 56.5478C157.798 58.6278 158.678 61.5878 158.678 65.4278C158.678 67.5078 158.398 69.6278 157.838 71.7878C157.278 73.9212 156.505 75.8145 155.518 77.4678C154.292 79.4412 152.798 80.9478 151.038 81.9878C149.278 83.0012 147.292 83.5078 145.078 83.5078C141.878 83.5078 139.385 82.2812 137.598 79.8278C135.812 77.3478 134.918 74.0012 134.918 69.7878C134.918 64.9612 136.185 61.0278 138.718 57.9878C141.252 54.9212 144.558 53.3878 148.638 53.3878ZM146.758 78.3078C147.958 78.3078 148.852 77.4812 149.438 75.8278C150.025 74.1745 150.318 71.4412 150.318 67.6278C150.318 64.3478 150.052 62.0278 149.518 60.6678C149.012 59.2812 148.145 58.5878 146.918 58.5878C145.692 58.5878 144.745 59.4678 144.078 61.2278C143.438 62.9878 143.118 65.4678 143.118 68.6678C143.118 71.7078 143.425 74.0812 144.038 75.7878C144.678 77.4678 145.585 78.3078 146.758 78.3078Z" fill="#3D3E3C"/>
</g>
<defs>
<filter id="filter0_d_64_50" x="39.3297" y="26.0984" width="119.715" height="27.7401" filterUnits="userSpaceOnUse" color-interpolation-filters="sRGB">
<feFlood flood-opacity="0" result="BackgroundImageFix"/>
<feColorMatrix in="SourceAlpha" type="matrix" values="0 0 0 0 0 0 0 0 0 0 0 0 0 0 0 0 0 0 127 0" result="hardAlpha"/>
<feOffset dx="4" dy="4"/>
<feGaussianBlur stdDeviation="2"/>
<feComposite in2="hardAlpha" operator="out"/>
<feColorMatrix type="matrix" values="0 0 0 0 0 0 0 0 0 0 0 0 0 0 0 0 0 0 0.2 0"/>
<feBlend mode="normal" in2="BackgroundImageFix" result="effect1_dropShadow_64_50"/>
<feBlend mode="normal" in="SourceGraphic" in2="effect1_dropShadow_64_50" result="shape"/>
</filter>
<filter id="filter1_d_64_50" x="45.4886" y="53.3878" width="122.19" height="39.72" filterUnits="userSpaceOnUse" color-interpolation-filters="sRGB">
<feFlood flood-opacity="0" result="BackgroundImageFix"/>
<feColorMatrix in="SourceAlpha" type="matrix" values="0 0 0 0 0 0 0 0 0 0 0 0 0 0 0 0 0 0 127 0" result="hardAlpha"/>
<feOffset dx="5" dy="5"/>
<feGaussianBlur stdDeviation="2"/>
<feComposite in2="hardAlpha" operator="out"/>
<feColorMatrix type="matrix" values="0 0 0 0 0 0 0 0 0 0 0 0 0 0 0 0 0 0 0.2 0"/>
<feBlend mode="normal" in2="BackgroundImageFix" result="effect1_dropShadow_64_50"/>
<feBlend mode="normal" in="SourceGraphic" in2="effect1_dropShadow_64_50" result="shape"/>
</filter>
</defs>
</svg>
